# xmcd
#
# Track frame offsets: 
#        150
#        15885
#        29787
#        44817
#        57845
#        75835
#        89860
#        102632
#        117160
#        131210
#        142435
#        157662
#        172492
#        187172
#        200340
#        215045
#        229082
#        242452
#        257072
#        269582
#
# Disc length: 3788 seconds
#
# Revision: 1
# Processed by: cddbd v1.5.2PL0 Copyright (c) Steve Scherf et al.
# Submitted via: ExactAudioCopyFreeDBPlugin 1.0
#
DISCID=350eca14
DTITLE=Varius - Amor Amor Amor
DYEAR=2004
DGENRE=Blues
TTITLE0=Nat King Cole  - Unforgettable
TTITLE1=Johnny Ray  - Cry
TTITLE2=Percy Faith -  The Song From The Moulin Rouge
TTITLE3=Les Paul and Martin Ford  - Vaya Con DIos
TTITLE4=Gene Kelly -  Singin' In The Rain
TTITLE5=Ella Fitzgerald -  Dream A Little Dream Of Me
TTITLE6=Perry Como -  You Alone
TTITLE7=Les Brown -  Sentimental Journey
TTITLE8=Jo Stafford -  You Belong To Me
TTITLE9=Louis Prima  - Buona Sera
TTITLE10=Gordon Jenkins -  Goodnight Irene
TTITLE11=Sarah Vaughan  - Summertime
TTITLE12=Frank Sinatra - Tea For Two
TTITLE13=Andy Russell -  Amor
TTITLE14=Benny Goodman - Smoke Get In Your Eyes
TTITLE15=Billie Holiday - The Man I Love
TTITLE16=Rita Hayworth -  Amado Mio
TTITLE17=Vic Damone -  You're Breaking My Hearth
TTITLE18=Judy Garland -  Over The Rainbow
TTITLE19=The Andrews Sisters -  I Wanna Be Loved
EXTD=
EXTT0=
EXTT1=
EXTT2=
EXTT3=
EXTT4=
EXTT5=
EXTT6=
EXTT7=
EXTT8=
EXTT9=
EXTT10=
EXTT11=
EXTT12=
EXTT13=
EXTT14=
EXTT15=
EXTT16=
EXTT17=
EXTT18=
EXTT19=
PLAYORDER=
